<svg xmlns="http://www.w3.org/2000/svg" width="32" height="32" fill="none"><path fill="#007BFF" d="M5.314 8.102C3.449 8.37 1 10.26 1 10.26l2.696.54v12.94s.927-.764 1.618-1.079c.79-.36 2.157-.54 2.157-.54-1.775-1.028 2.877-13.49 0-14.02-.828-.152-1.323-.119-2.157 0"/><path fill="gold" d="M11.172 9.853c-1.112.486-2.426 1.941-2.426 1.941s2.092-.792 3.397-.485c.825.194 1.272.45 1.941.97.423.33.626.56.97.971.44.523.624.867.972 1.456.43.73.72 1.131.97 1.941.446 1.45.343 2.406 0 3.883-.23.994-.97 2.426-.97 2.426s.972-.487 1.455-.97.624-.867.971-1.456c.43-.73.656-1.154.97-1.941.223-.557.486-1.456.486-1.456s.69-2.808 0-4.368c-.384-.867-.75-1.31-1.456-1.942a5.3 5.3 0 0 0-1.456-.97 5.3 5.3 0 0 0-1.456-.486c-.93-.185-1.487-.126-2.426 0-.775.105-1.226.172-1.942.486"/><path fill="#00C851" d="M21.957 9.365c-1.111.487-2.426 1.941-2.426 1.941s2.093-.792 3.397-.485c.825.194 1.272.45 1.941.97.424.33.626.56.971.971.44.524.624.868.97 1.456.431.73.722 1.132.971 1.942.446 1.449.343 2.405 0 3.882-.23.994-.97 2.427-.97 2.427s.972-.488 1.456-.97c.483-.484.623-.868.97-1.457.43-.73.656-1.154.97-1.941.223-.556.486-1.456.486-1.456s.69-2.808 0-4.368c-.383-.866-.75-1.31-1.456-1.941a5.3 5.3 0 0 0-1.456-.97 5.3 5.3 0 0 0-1.456-.486c-.929-.186-1.487-.127-2.426 0-.775.104-1.226.172-1.942.485"/></svg>